<svg xmlns="http://www.w3.org/2000/svg" width="30" height="30" fill="none" viewBox="0 0 30 30"><path fill="url(#paint0_linear_370_18377)" d="M15.2455 3.31274C8.75506 3.31274 3.49194 8.66461 3.49194 15.267C3.49194 20.5488 6.8597 25.0298 11.5298 26.6105C12.1172 26.7212 12.3328 26.3512 12.3328 26.0355C12.3328 25.7504 12.3219 24.8087 12.3169 23.8098C9.04701 24.5329 8.35703 22.3993 8.35703 22.3993C7.82237 21.0176 7.052 20.6501 7.052 20.6501C5.9856 19.9082 7.13239 19.9234 7.13239 19.9234C8.31265 20.0076 8.93412 21.1553 8.93412 21.1553C9.98242 22.9829 11.6837 22.4546 12.3544 22.1491C12.4599 21.3767 12.7645 20.8489 13.1007 20.5506C10.49 20.2483 7.74568 19.2232 7.74568 14.6426C7.74568 13.3375 8.20482 12.2711 8.9567 11.4339C8.83466 11.1326 8.43235 9.91691 9.07056 8.27027C9.07056 8.27027 10.0576 7.94898 12.3036 9.49565C13.2412 9.23078 14.2467 9.09795 15.2455 9.09339C16.2444 9.09795 17.2507 9.23078 18.19 9.49565C20.4333 7.94898 21.419 8.27027 21.419 8.27027C22.0587 9.91691 21.6562 11.1326 21.5342 11.4339C22.2878 12.2711 22.7438 13.3375 22.7438 14.6426C22.7438 19.2341 19.9942 20.2451 17.377 20.5411C17.7986 20.912 18.1742 21.6396 18.1742 22.7549C18.1742 24.3542 18.1606 25.6415 18.1606 26.0355C18.1606 26.3536 18.3721 26.7263 18.9679 26.609C23.6355 25.0265 26.9989 20.547 26.9989 15.267C26.9989 8.66461 21.7366 3.31274 15.2455 3.31274Z"/><path stroke="url(#paint1_linear_370_18377)" stroke-width=".5" d="M15.2455 3.31274C8.75506 3.31274 3.49194 8.66461 3.49194 15.267C3.49194 20.5488 6.8597 25.0298 11.5298 26.6105C12.1172 26.7212 12.3328 26.3512 12.3328 26.0355C12.3328 25.7504 12.3219 24.8087 12.3169 23.8098C9.04701 24.5329 8.35703 22.3993 8.35703 22.3993C7.82237 21.0176 7.052 20.6501 7.052 20.6501C5.9856 19.9082 7.13239 19.9234 7.13239 19.9234C8.31265 20.0076 8.93412 21.1553 8.93412 21.1553C9.98242 22.9829 11.6837 22.4546 12.3544 22.1491C12.4599 21.3767 12.7645 20.8489 13.1007 20.5506C10.49 20.2483 7.74568 19.2232 7.74568 14.6426C7.74568 13.3375 8.20482 12.2711 8.9567 11.4339C8.83466 11.1326 8.43235 9.91691 9.07056 8.27027C9.07056 8.27027 10.0576 7.94898 12.3036 9.49565C13.2412 9.23078 14.2467 9.09795 15.2455 9.09339C16.2444 9.09795 17.2507 9.23078 18.19 9.49565C20.4333 7.94898 21.419 8.27027 21.419 8.27027C22.0587 9.91691 21.6562 11.1326 21.5342 11.4339C22.2878 12.2711 22.7438 13.3375 22.7438 14.6426C22.7438 19.2341 19.9942 20.2451 17.377 20.5411C17.7986 20.912 18.1742 21.6396 18.1742 22.7549C18.1742 24.3542 18.1606 25.6415 18.1606 26.0355C18.1606 26.3536 18.3721 26.7263 18.9679 26.609C23.6355 25.0265 26.9989 20.547 26.9989 15.267C26.9989 8.66461 21.7366 3.31274 15.2455 3.31274"/><path fill="url(#paint2_linear_370_18377)" d="M7.94368 20.4762C7.9178 20.5358 7.82593 20.5534 7.74224 20.5127C7.65699 20.4737 7.60911 20.3927 7.63674 20.3331C7.66205 20.2719 7.75411 20.2551 7.83916 20.2957C7.92461 20.3349 7.97327 20.4166 7.94368 20.4762Z"/><path fill="url(#paint3_linear_370_18377)" d="M8.41937 21.0165C8.36332 21.0694 8.25374 21.0448 8.17939 20.9613C8.10251 20.878 8.0881 20.7665 8.14494 20.7129C8.20274 20.66 8.30901 20.6848 8.38609 20.7681C8.46297 20.8524 8.47796 20.9631 8.41937 21.0165Z"/><path fill="url(#paint4_linear_370_18377)" d="M8.88266 21.7048C8.81065 21.7557 8.6929 21.708 8.6201 21.6017C8.54809 21.4954 8.54809 21.3679 8.62166 21.3168C8.69465 21.2657 8.81065 21.3117 8.88442 21.4172C8.95624 21.5251 8.95624 21.6527 8.88266 21.7048Z"/><path fill="url(#paint5_linear_370_18377)" d="M9.51752 22.3699C9.4531 22.4422 9.31588 22.4228 9.21545 22.3242C9.11268 22.2278 9.08407 22.091 9.14869 22.0187C9.21389 21.9463 9.35189 21.9666 9.4531 22.0644C9.55508 22.1607 9.58623 22.2984 9.51752 22.3699Z"/><path fill="url(#paint6_linear_370_18377)" d="M10.3936 22.7562C10.3652 22.8499 10.2331 22.8924 10.0999 22.8526C9.96699 22.8116 9.87999 22.702 9.90685 22.6074C9.93449 22.5131 10.0672 22.4688 10.2013 22.5113C10.3341 22.5521 10.4213 22.661 10.3936 22.7562Z"/><path fill="url(#paint7_linear_370_18377)" d="M11.3558 22.8278C11.3591 22.9264 11.2462 23.0081 11.1065 23.0097C10.9659 23.0131 10.8523 22.9333 10.8507 22.8363C10.8507 22.7367 10.9611 22.6558 11.1016 22.6534C11.2413 22.6506 11.3558 22.7298 11.3558 22.8278Z"/><path fill="url(#paint8_linear_370_18377)" d="M12.2506 22.6731C12.2674 22.7693 12.1703 22.8681 12.0315 22.8942C11.895 22.9197 11.7687 22.8603 11.7514 22.7649C11.7345 22.6663 11.8333 22.5676 11.9696 22.542C12.1086 22.5175 12.2329 22.5753 12.2506 22.6731Z"/><defs><linearGradient id="paint0_linear_370_18377" x1="15.245" x2="15.245" y1="3.313" y2="26.631" gradientUnits="userSpaceOnUse"><stop stop-color="#DBF0FF" stop-opacity=".54"/><stop offset="1" stop-color="#CEEAFF" stop-opacity=".32"/></linearGradient><linearGradient id="paint1_linear_370_18377" x1="15.245" x2="15.245" y1="3.313" y2="26.631" gradientUnits="userSpaceOnUse"><stop stop-color="#fff" stop-opacity=".46"/><stop offset="1" stop-color="#fff" stop-opacity="0"/></linearGradient><linearGradient id="paint2_linear_370_18377" x1="7.825" x2="7.825" y1="20.274" y2="20.673" gradientUnits="userSpaceOnUse"><stop stop-color="#DBF0FF" stop-opacity=".54"/><stop offset="1" stop-color="#CEEAFF" stop-opacity=".32"/></linearGradient><linearGradient id="paint3_linear_370_18377" x1="8.307" x2="8.307" y1="20.685" y2="21.084" gradientUnits="userSpaceOnUse"><stop stop-color="#DBF0FF" stop-opacity=".54"/><stop offset="1" stop-color="#CEEAFF" stop-opacity=".32"/></linearGradient><linearGradient id="paint4_linear_370_18377" x1="8.763" x2="8.763" y1="21.296" y2="21.725" gradientUnits="userSpaceOnUse"><stop stop-color="#DBF0FF" stop-opacity=".54"/><stop offset="1" stop-color="#CEEAFF" stop-opacity=".32"/></linearGradient><linearGradient id="paint5_linear_370_18377" x1="9.334" x2="9.334" y1="21.975" y2="22.413" gradientUnits="userSpaceOnUse"><stop stop-color="#DBF0FF" stop-opacity=".54"/><stop offset="1" stop-color="#CEEAFF" stop-opacity=".32"/></linearGradient><linearGradient id="paint6_linear_370_18377" x1="10.15" x2="10.15" y1="22.495" y2="22.894" gradientUnits="userSpaceOnUse"><stop stop-color="#DBF0FF" stop-opacity=".54"/><stop offset="1" stop-color="#CEEAFF" stop-opacity=".32"/></linearGradient><linearGradient id="paint7_linear_370_18377" x1="11.103" x2="11.103" y1="22.653" y2="23.052" gradientUnits="userSpaceOnUse"><stop stop-color="#DBF0FF" stop-opacity=".54"/><stop offset="1" stop-color="#CEEAFF" stop-opacity=".32"/></linearGradient><linearGradient id="paint8_linear_370_18377" x1="12.001" x2="12.001" y1="22.536" y2="22.936" gradientUnits="userSpaceOnUse"><stop stop-color="#DBF0FF" stop-opacity=".54"/><stop offset="1" stop-color="#CEEAFF" stop-opacity=".32"/></linearGradient></defs></svg>